<?xml version="1.0" encoding="UTF-8" standalone="no"?>
<!-- Created with Inkscape (http://www.inkscape.org/) -->

<svg
   width="720"
   height="240"
   viewBox="0 0 720 240"
   version="1.1"
   id="svg1"
   inkscape:version="1.4.2 (2aeb623e1d, 2025-05-12)"
   sodipodi:docname="banner.svg"
   inkscape:export-filename="../a4b031b/banner.png"
   inkscape:export-xdpi="96"
   inkscape:export-ydpi="96"
   xmlns:inkscape="http://www.inkscape.org/namespaces/inkscape"
   xmlns:sodipodi="http://sodipodi.sourceforge.net/DTD/sodipodi-0.dtd"
   xmlns:xlink="http://www.w3.org/1999/xlink"
   xmlns="http://www.w3.org/2000/svg"
   xmlns:svg="http://www.w3.org/2000/svg">
  <sodipodi:namedview
     id="namedview1"
     pagecolor="#ffffff"
     bordercolor="#000000"
     borderopacity="0.25"
     inkscape:showpageshadow="2"
     inkscape:pageopacity="0.0"
     inkscape:pagecheckerboard="0"
     inkscape:deskcolor="#d1d1d1"
     inkscape:document-units="px"
     inkscape:zoom="1.0116647"
     inkscape:cx="345.47021"
     inkscape:cy="125.04143"
     inkscape:window-width="1870"
     inkscape:window-height="1011"
     inkscape:window-x="50"
     inkscape:window-y="32"
     inkscape:window-maximized="1"
     inkscape:current-layer="layer1"
     inkscape:clip-to-page="false"
     inkscape:export-bgcolor="#ffffffff" />
  <defs
     id="defs1">
    <linearGradient
       id="linearGradient5"
       inkscape:collect="always">
      <stop
         style="stop-color:#29abe2;stop-opacity:1;"
         offset="0"
         id="stop5" />
      <stop
         style="stop-color:#29abe2;stop-opacity:0;"
         offset="1"
         id="stop6" />
    </linearGradient>
    <linearGradient
       id="linearGradient1"
       inkscape:collect="always">
      <stop
         style="stop-color:#602d72;stop-opacity:1;"
         offset="0"
         id="stop3" />
      <stop
         style="stop-color:#474478;stop-opacity:1;"
         offset="1"
         id="stop4" />
    </linearGradient>
    <linearGradient
       id="gradient_0"
       gradientUnits="userSpaceOnUse"
       x1="155.03069"
       y1="349.42569"
       x2="542.43304"
       y2="92.15448"
       gradientTransform="matrix(0.28438009,0,0,0.28438009,3.952393,46.421463)">
      <stop
         offset="0"
         stop-color="#60246A"
         id="stop1" />
      <stop
         offset="1"
         stop-color="#39669A"
         id="stop2" />
    </linearGradient>
    <linearGradient
       id="gradient_1"
       gradientUnits="userSpaceOnUse"
       x1="155.44453"
       y1="518.02393"
       x2="542.34845"
       y2="261.32217"
       gradientTransform="matrix(0.28438009,0,0,0.28438009,3.952393,46.421463)">
      <stop
         offset="0"
         stop-color="#6A1963"
         id="stop17" />
      <stop
         offset="1"
         stop-color="#41578E"
         id="stop18" />
    </linearGradient>
    <linearGradient
       id="gradient_2"
       gradientUnits="userSpaceOnUse"
       x1="120.91952"
       y1="643.91779"
       x2="576.18536"
       y2="472.15829"
       gradientTransform="matrix(0.28438009,0,0,0.28438009,3.952393,46.421463)">
      <stop
         offset="0"
         stop-color="#731663"
         id="stop33" />
      <stop
         offset="1"
         stop-color="#474781"
         id="stop34" />
    </linearGradient>
    <linearGradient
       id="gradient_3"
       gradientUnits="userSpaceOnUse"
       x1="538.60901"
       y1="492.78882"
       x2="940.3075"
       y2="256.20477"
       gradientTransform="matrix(0.28438009,0,0,0.28438009,3.952393,46.421463)">
      <stop
         offset="0"
         stop-color="#434D85"
         id="stop49" />
      <stop
         offset="1"
         stop-color="#2987B8"
         id="stop50" />
    </linearGradient>
    <linearGradient
       id="gradient_4"
       gradientUnits="userSpaceOnUse"
       x1="637.67493"
       y1="370.85297"
       x2="790.52765"
       y2="377.05392"
       gradientTransform="matrix(0.28438009,0,0,0.28438009,3.952393,46.421463)">
      <stop
         offset="0"
         stop-color="#414F87"
         id="stop51" />
      <stop
         offset="1"
         stop-color="#376498"
         id="stop52" />
    </linearGradient>
    <linearGradient
       id="gradient_5"
       gradientUnits="userSpaceOnUse"
       x1="1261.4935"
       y1="543.91772"
       x2="1379.649"
       y2="479.57996"
       gradientTransform="matrix(0.28438009,0,0,0.28438009,3.952393,46.421463)">
      <stop
         offset="0"
         stop-color="#2275A9"
         id="stop58" />
      <stop
         offset="1"
         stop-color="#2D8EBC"
         id="stop59" />
    </linearGradient>
    <linearGradient
       id="gradient_6"
       gradientUnits="userSpaceOnUse"
       x1="1257.929"
       y1="291.35635"
       x2="1358.9337"
       y2="225.78459"
       gradientTransform="matrix(0.28438009,0,0,0.28438009,3.952393,46.421463)">
      <stop
         offset="0"
         stop-color="#267BAD"
         id="stop65" />
      <stop
         offset="1"
         stop-color="#3C97BE"
         id="stop66" />
    </linearGradient>
    <linearGradient
       id="gradient_7"
       gradientUnits="userSpaceOnUse"
       x1="1272.9095"
       y1="267.51901"
       x2="1344.5537"
       y2="250.11369"
       gradientTransform="matrix(0.28438009,0,0,0.28438009,3.952393,46.421463)">
      <stop
         offset="0"
         stop-color="#317BA7"
         id="stop67" />
      <stop
         offset="1"
         stop-color="#3F91B7"
         id="stop68" />
    </linearGradient>
    <linearGradient
       id="gradient_8"
       gradientUnits="userSpaceOnUse"
       x1="992.57684"
       y1="293.07904"
       x2="1183.0752"
       y2="294.3364"
       gradientTransform="matrix(0.28438009,0,0,0.28438009,3.952393,46.421463)">
      <stop
         offset="0"
         stop-color="#24679B"
         id="stop72" />
      <stop
         offset="1"
         stop-color="#298EBC"
         id="stop73" />
    </linearGradient>
    <linearGradient
       inkscape:collect="always"
       xlink:href="#linearGradient1"
       id="linearGradient4"
       x1="83.754211"
       y1="24.38446"
       x2="640.88934"
       y2="24.38446"
       gradientUnits="userSpaceOnUse"
       gradientTransform="translate(-14.696712,2.4304458)" />
    <linearGradient
       inkscape:collect="always"
       xlink:href="#linearGradient5"
       id="linearGradient6"
       x1="59.976082"
       y1="87.32338"
       x2="562.83893"
       y2="87.32338"
       gradientUnits="userSpaceOnUse" />
  </defs>
  <g
     inkscape:label="Layer 1"
     inkscape:groupmode="layer"
     id="layer1">
    <path
       fill="url(#gradient_0)"
       d="m 41.019641,86.767893 c 6.166491,-0.2292 13.740111,-0.0067 20.011254,-0.0067 l 39.397455,-0.013 41.64661,-0.0022 c 7.07623,-0.0011 14.21815,-0.218993 21.28757,0.01419 1.41933,0.0469 2.89925,0.05691 4.17839,0.73427 1.6585,0.878734 3.00164,2.446804 3.54309,4.252614 0.47378,1.57944 0.62991,30.413873 0.36118,33.792593 -0.083,1.04624 -0.31369,2.05096 -0.82954,2.97292 -1.01951,1.82287 -2.79034,2.67175 -4.72127,3.19302 -6.84788,0.31964 -15.80927,0.0518 -22.86219,0.0537 l -44.644253,-0.004 -37.926068,-0.0292 c -6.154274,-0.006 -12.549983,0.14278 -18.691461,-0.0506 -7.49995,-0.23633 -6.795827,-7.65494 -6.786724,-13.06471 l 0.02719,-11.72726 c 0.01182,-4.52789 -0.117162,-9.148504 0.08339,-13.657069 0.154127,-3.471996 2.618846,-5.861358 5.925342,-6.458838 z"
       id="path2"
       style="fill:url(#gradient_0);stroke-width:0.28438" />
    <path
       fill="#fdfdfc"
       d="m 135.97216,96.954377 c 3.46489,-0.191092 18.30414,-0.59463 20.73444,0.38506 0.95752,0.385888 1.71511,1.349101 2.07825,2.291823 0.65408,1.69775 0.70357,18.61125 -0.0323,20.19866 -0.56535,1.2197 -1.60078,1.81918 -2.81366,2.25883 -3.03008,0.21159 -18.25322,0.4988 -20.56893,-0.21327 -0.90063,-0.27669 -1.54447,-0.94528 -1.97615,-1.76885 -0.30684,-0.58468 -0.43966,-1.12415 -0.51388,-1.77765 -0.29348,-2.58018 -0.5062,-16.35812 0.20733,-18.41703 0.5113,-1.475366 1.53308,-2.280161 2.88473,-2.957557 z"
       id="path3"
       style="stroke-width:0.28438" />
    <path
       fill="#45517c"
       d="m 143.05693,101.45413 c 1.98014,0.35235 6.49297,3.56044 8.45775,4.70819 6.89422,4.02853 0.94016,6.55582 -2.75422,8.72621 -6.89167,4.33822 -9.37687,4.33736 -8.9884,-5.04405 0.14955,-3.61674 -1.25213,-7.16553 3.28487,-8.39035 z"
       id="path4"
       style="stroke-width:0.28438" />
    <path
       fill="#fdfdfc"
       d="m 143.74997,106.21067 c 1.93093,1.10283 3.81495,2.36633 5.68049,3.58205 l -1.89625,1.27147 -3.78083,2.36405 z"
       id="path5"
       style="stroke-width:0.28438" />
    <path
       fill="#fdfdfc"
       d="m 50.569119,97.030029 c 1.795012,-0.03941 4.863761,-0.297731 6.394287,0.413494 0.433115,0.424574 0.517004,1.009546 0.615966,1.587979 0.303446,1.771398 0.531798,12.768658 -0.317356,13.806078 -0.530363,0.64781 -1.401136,0.62308 -2.159008,0.63929 -1.767706,-0.003 -5.31109,0.30711 -6.792703,-0.31169 -0.669148,-0.75502 -0.77408,-2.08365 -0.828976,-3.05395 -0.106403,-1.88373 -0.462396,-11.376339 0.554264,-12.457554 0.661179,-0.703275 1.645421,-0.604025 2.533538,-0.623647 z"
       id="path6"
       style="stroke-width:0.28438" />
    <path
       fill="#602d72"
       d="m 49.332632,98.958407 6.502924,0.0033 c 0.01655,4.223053 0.0067,8.446663 -0.02916,12.669713 -2.166693,0.002 -4.333662,-0.009 -6.500643,-0.0351 -0.01222,-4.21281 -0.0033,-8.42562 0.02719,-12.638139 z"
       id="path7"
       style="stroke-width:0.28438" />
    <path
       fill="#fdfdfc"
       d="m 73.103685,97.150324 c 1.532241,-0.13194 7.653809,-0.373396 8.413104,0.426856 1.332889,1.404829 0.557389,11.10276 0.708099,13.32605 0.0865,1.27601 -0.335839,1.87548 -1.02689,2.49913 -1.025199,0.0887 -8.089197,0.42231 -8.489315,-0.51017 -1.409677,-3.2846 -0.410361,-8.33774 -0.674551,-11.9963 -0.10459,-1.446071 0.02562,-2.701888 1.069553,-3.745566 z"
       id="path8"
       style="stroke-width:0.28438" />
    <path
       fill="#602d72"
       d="m 74.044984,98.972914 6.30613,0.0055 -0.0099,12.611116 c -1.780222,0.10151 -4.5006,0.0319 -6.349641,0.0355 -0.01458,-4.18067 -0.08158,-8.48249 0.05379,-12.651782 z"
       id="path9"
       style="stroke-width:0.28438" />
    <path
       fill="#fdfdfc"
       d="m 61.105689,97.135538 c 1.054759,-0.0666 7.916001,-0.467531 8.20693,0.549129 1.200933,4.194613 0.513867,9.674903 0.479747,14.076253 -0.0067,0.81304 -0.530375,1.25354 -1.115055,1.68495 -9.289567,0.2184 -8.923845,1.29251 -8.766585,-8.65198 0.03665,-2.32936 -0.535211,-6.080619 1.194963,-7.658352 z"
       id="path10"
       style="stroke-width:0.28438" />
    <path
       fill="#602d72"
       d="m 61.812369,98.970068 6.165935,8.56e-4 c 0.09182,3.761206 0.125989,8.926986 -0.0099,12.659746 l -6.177876,-0.009 z"
       id="path11"
       style="stroke-width:0.28438" />
    <path
       fill="#fdfdfc"
       d="m 99.624409,117.21902 c 2.908061,-0.0307 8.758611,-1.369 8.033451,2.92372 -0.22522,1.33346 0.12485,1.06074 -0.94386,2.0282 -2.15674,0.0429 -8.280865,1.17846 -8.044265,-2.16272 0.09103,-1.28624 -0.131939,-1.91273 0.954674,-2.7892 z"
       id="path12"
       style="stroke-width:0.28438" />
    <path
       fill="#fdfdfc"
       d="m 112.51991,117.2085 c 2.48007,-0.048 8.36817,-1.09543 8.01525,2.36776 -0.14786,1.44863 0.16835,1.51716 -0.92053,2.58529 -2.81878,0.0785 -8.75892,1.32408 -8.01498,-2.83242 0.21072,-1.17762 -0.0711,-1.23137 0.92026,-2.12063 z"
       id="path13"
       style="stroke-width:0.28438" />
    <path
       fill="#fdfdfc"
       d="m 61.448077,117.19996 c 2.037016,-0.0504 4.05413,-0.15353 6.087161,-0.0671 2.584443,0.11007 2.671464,3.50983 1.386354,4.96302 -3.191033,0.0592 -9.258284,1.36189 -8.243891,-3.21294 0.220963,-0.99759 -0.0398,-0.86337 0.770376,-1.68296 z"
       id="path14"
       style="stroke-width:0.28438" />
    <path
       fill="#fdfdfc"
       d="m 48.809662,117.20168 c 1.793865,-0.0409 6.231337,-0.46126 7.438528,0.45984 0.408366,0.31424 0.671426,0.78119 0.728012,1.29365 0.127408,1.24786 0.04071,2.18319 -0.715784,3.13586 -0.788019,0.0126 -1.678694,0.0756 -2.404716,0.0603 -2.298356,-0.0478 -6.248688,0.96291 -5.807893,-2.75622 0.137063,-1.15629 -0.100728,-1.26805 0.761853,-2.19342 z"
       id="path15"
       style="stroke-width:0.28438" />
    <path
       fill="#fdfdfc"
       d="m 86.782366,117.20878 c 0.739961,-0.0217 1.572906,-0.0737 2.269924,-0.0662 2.242909,0.024 6.084024,-0.90148 5.711775,2.67062 -0.123427,1.18188 0.11263,1.36332 -0.80366,2.29893 -2.025918,0.0355 -5.993882,0.64383 -7.517582,-0.59123 -1.004155,-0.81389 -0.614551,-3.36706 0.339543,-4.31205 z"
       id="path16"
       style="stroke-width:0.28438" />
    <path
       fill="#fdfdfc"
       d="m 74.115222,117.22557 c 1.935495,-0.0518 6.223376,-0.61427 7.54404,0.63758 0.840626,0.79654 0.55938,3.34601 -0.395006,4.24835 -1.375549,0.037 -2.750806,0.0839 -4.125787,0.14077 -1.707698,0.0646 -3.988148,0.0447 -3.925583,-2.30462 0.03547,-1.33572 -0.04804,-1.7586 0.902336,-2.72208 z"
       id="path17"
       style="stroke-width:0.28438" />
    <path
       fill="url(#gradient_1)"
       d="m 40.212276,135.41821 c 4.598144,-0.3185 12.253663,-0.0699 17.006785,-0.064 l 32.125856,0.0185 49.936293,0.0114 c 8.29538,-2.8e-4 16.64506,-0.22151 24.93474,-0.001 1.22568,0.0323 2.3322,0.0876 3.45863,0.63502 1.7859,0.86764 2.94675,2.34471 3.58745,4.20029 0.57104,1.65396 0.5625,29.46833 0.28327,33.05123 -0.0597,0.81418 -0.27783,1.60875 -0.64157,2.33932 -1.04225,2.11635 -2.75763,3.07756 -4.85749,3.82007 -1.57433,0.27586 -9.65187,0.13395 -11.65248,0.13111 l -24.85909,0.007 -57.087317,-0.0351 c -9.829026,-0.008 -19.653504,0.0177 -29.484807,-0.0438 -4.862626,-0.0303 -7.931651,-2.57904 -8.013549,-7.63588 -0.118581,-9.88621 0.01616,-19.78576 -0.0043,-29.67309 -0.0079,-3.45408 2.174093,-5.72144 5.267855,-6.76113 z"
       id="path18"
       style="fill:url(#gradient_1);stroke-width:0.28438" />
    <path
       fill="#fdfdfc"
       d="m 137.19472,144.04517 c 3.1569,-0.0699 18.51428,-0.64128 20.34568,0.56848 0.94671,0.62535 1.67557,1.67898 1.88886,2.79602 0.40808,2.1374 0.34325,16.43774 0.0871,18.81629 -0.0896,0.83012 -0.20363,1.53311 -0.6939,2.23069 -0.73199,1.04168 -1.76856,1.51631 -2.98684,1.7404 -3.52035,0.1237 -18.12553,0.64697 -20.35422,-0.59151 -0.97884,-0.54402 -1.76998,-1.78051 -2.02792,-2.85233 -0.53292,-2.21532 -0.43396,-15.52659 -0.14018,-18.1318 0.10093,-0.89665 0.2841,-1.70344 0.75589,-2.48321 0.73626,-1.21685 1.7913,-1.74808 3.12562,-2.09303 z"
       id="path19"
       style="stroke-width:0.28438" />
    <path
       fill="#474478"
       d="m 142.99465,149.30847 c 2.33675,-0.13395 6.40026,2.82419 8.43557,4.13887 6.93944,4.48268 2.01113,6.9002 -2.0555,9.31487 -2.37145,1.51177 -6.96106,4.86291 -8.739,0.91799 -0.9814,-2.17722 -0.62137,-9.37488 -0.24288,-12.03099 0.14676,-1.03031 1.74581,-1.9227 2.6018,-2.34074 z"
       id="path20"
       style="stroke-width:0.28438" />
    <path
       fill="#fdfdfc"
       d="m 144.08639,153.91515 c 1.25497,0.63929 4.4386,2.77924 5.77206,3.62357 l -2.2267,1.4 -3.51721,2.17238 z"
       id="path21"
       style="stroke-width:0.28438" />
    <path
       fill="#fdfdfc"
       d="m 48.697616,144.39893 c 1.091456,-0.054 8.017816,-0.38845 8.367598,0.39928 1.35934,3.06334 0.50364,10.02951 0.645546,13.58853 0.0478,1.1981 -0.432255,1.74553 -1.129273,2.34386 -2.122047,0.11574 -4.330261,0.0984 -6.440355,0.0799 -1.514333,-0.0154 -2.379692,-0.49112 -2.493452,-2.14025 -0.274717,-3.99012 -0.122009,-8.14834 -0.03429,-12.15071 0.02364,-1.06698 0.314519,-1.48389 1.08434,-2.12062 z"
       id="path22"
       style="stroke-width:0.28438" />
    <path
       fill="#602d72"
       d="m 49.382972,146.23262 6.470215,-0.0169 c 0.02798,4.23243 0.02049,8.46486 -0.02246,12.69672 l -6.462822,-0.0221 z"
       id="path23"
       style="stroke-width:0.28438" />
    <path
       fill="#fdfdfc"
       d="m 73.164828,144.40491 c 0.829252,-0.0185 7.974873,-0.39187 8.237633,0.39784 1.359907,4.08769 0.534067,10.07104 0.530375,14.44595 -2.88e-4,0.68535 -0.536621,1.11107 -1.023485,1.48929 -1.180181,0.0694 -7.888419,0.4226 -8.242469,-0.42685 -1.324077,-3.17823 -0.450179,-9.84325 -0.621657,-13.47393 -0.05825,-1.23762 0.39842,-1.80638 1.119603,-2.4323 z"
       id="path24"
       style="stroke-width:0.28438" />
    <path
       fill="#602d72"
       d="m 73.93265,146.24541 c 2.06176,-0.0319 4.182948,-0.0118 6.250111,-0.0169 0.04926,4.22732 0.04126,8.45519 -0.02325,12.6825 l -6.294757,-0.002 c -0.0055,-4.18267 -0.06392,-8.49301 0.06794,-12.66402 z"
       id="path25"
       style="stroke-width:0.28438" />
    <path
       fill="#fdfdfc"
       d="m 61.135828,144.41913 c 1.874917,-0.052 6.982104,-0.51587 8.287415,0.63217 0.724599,1.62467 0.355464,11.28705 0.328469,13.53451 -0.01379,1.11562 -0.313376,1.47394 -1.101983,2.13285 -0.983099,0.0248 -7.478626,0.44392 -8.115069,-0.39529 -0.701561,-1.34199 -0.845461,-4.16702 -0.693313,-5.74163 0.267308,-2.76248 -0.887841,-8.39576 1.294493,-10.16261 z"
       id="path26"
       style="stroke-width:0.28438" />
    <path
       fill="#602d72"
       d="m 61.803553,146.2275 6.111906,0.003 c 0.04126,4.22475 0.04292,8.44979 0.0055,12.67454 l -6.16251,-0.002 c -0.02325,-4.22504 -0.0079,-8.45035 0.04493,-12.67539 z"
       id="path27"
       style="stroke-width:0.28438" />
    <path
       fill="#fdfdfc"
       d="m 61.442966,164.64567 c 2.030478,0.004 6.329732,-0.67627 7.731156,0.74792 0.826687,0.83976 0.570177,3.3608 -0.477757,4.23755 -1.965355,0.10238 -6.144602,0.608 -7.578168,-0.56621 -1.057605,-0.8665 -0.623647,-3.41853 0.324769,-4.41926 z"
       id="path28"
       style="stroke-width:0.28438" />
    <path
       fill="#fdfdfc"
       d="m 99.697492,164.66784 c 2.649568,-0.0822 8.653968,-1.17363 8.076398,2.63962 -0.20107,1.32578 0.0805,1.30986 -0.89438,2.30804 -1.95938,0.085 -6.27314,0.68705 -7.629059,-0.61313 -0.959222,-0.91968 -0.641858,-3.38129 0.447041,-4.33453 z"
       id="path29"
       style="stroke-width:0.28438" />
    <path
       fill="#fdfdfc"
       d="m 74.346711,164.64936 c 1.593946,0.007 3.393506,-0.0407 4.988879,-0.12343 3.05055,-0.15811 3.54736,3.58405 1.65737,5.15497 -1.6258,-0.004 -3.522328,0.0343 -5.150406,0.1064 -3.111972,0.13848 -3.440434,-3.76207 -1.495843,-5.1379 z"
       id="path30"
       style="stroke-width:0.28438" />
    <path
       fill="#fdfdfc"
       d="m 48.974882,164.6579 c 0.720051,-0.0173 1.531673,-0.0595 2.196552,-0.0535 2.342727,0.0209 6.172469,-0.87533 5.764103,2.81252 -0.127684,1.15373 0.04926,1.25866 -0.789722,2.18233 -2.002884,0.10329 -3.986726,0.27897 -5.985917,0.12169 -2.507091,-0.19708 -2.444814,-3.65599 -1.185016,-5.0631 z"
       id="path31"
       style="stroke-width:0.28438" />
    <path
       fill="#fdfdfc"
       d="m 86.985414,164.66614 c 1.056194,-0.008 3.535704,0.01 4.502594,-0.16437 3.361656,-0.60687 4.411301,3.43275 2.356658,5.13335 -2.403014,0.0537 -8.115357,1.20577 -7.806521,-2.38197 0.117162,-1.35962 -0.08272,-1.58428 0.947269,-2.587 z"
       id="path32"
       style="stroke-width:0.28438" />
    <path
       fill="#fdfdfc"
       d="m 112.67148,164.70738 c 1.6221,-0.0583 3.23084,-0.1399 4.85778,-0.17947 2.85063,-0.0692 3.2573,3.63638 1.47054,5.13364 -2.19969,0.0158 -7.37683,1.11875 -7.44509,-2.06204 -0.0311,-1.46485 -0.13367,-2.13116 1.11677,-2.89215 z"
       id="path33"
       style="stroke-width:0.28438" />
    <path
       fill="url(#gradient_2)"
       d="m 40.228497,183.25522 c 4.527894,-0.32934 12.40693,-0.0785 17.136742,-0.0705 l 32.09855,0.0225 51.185291,0.0221 c 7.65921,0.0118 15.34231,-0.0296 23.00265,0.002 1.31499,0.006 2.48179,0.10838 3.68842,0.67454 1.7168,0.79571 3.03973,2.25116 3.6685,4.0365 0.5389,1.5328 0.50107,3.70234 0.49682,5.33212 -0.0232,9.22416 0.11661,18.46025 -0.0526,27.68129 -0.01,0.57842 -0.22294,1.3434 -0.39842,1.8968 -0.8648,2.44425 -2.73176,3.57722 -5.04263,4.32458 -2.27134,0.38675 -10.38271,0.21273 -13.23164,0.20729 l -26.23235,-0.011 -55.063393,-0.0122 c -9.508813,-0.002 -19.048344,0.0276 -28.558016,-0.0374 -1.350811,-0.009 -2.798584,-0.20449 -4.028534,-0.78291 -1.648834,-0.79115 -2.9129,-2.20963 -3.510099,-3.93895 -0.27385,-0.80366 -0.441351,-2.1081 -0.448756,-2.98258 -0.07362,-8.859 2.87e-4,-17.72569 -0.03232,-26.58612 -0.0079,-2.1593 -0.110935,-4.31433 0.881859,-6.30556 0.97742,-1.9608 2.454776,-2.82418 4.439749,-3.47256 z"
       id="path34"
       style="fill:url(#gradient_2);stroke-width:0.28438" />
    <path
       fill="#fdfdfc"
       d="m 136.99651,191.46783 c 3.44327,-0.21099 17.12593,-0.61653 19.71636,0.38561 0.99788,0.3862 1.77026,1.21943 2.18602,2.19655 0.79428,1.86696 0.81247,19.30429 0.002,21.13115 -0.61085,1.37754 -1.81775,1.98242 -3.16316,2.46927 -3.2297,0.27641 -17.06735,0.56763 -19.45843,-0.35747 -1.12528,-0.43539 -1.96249,-1.45034 -2.43286,-2.53668 -0.87532,-2.02109 -0.8375,-18.50261 -0.0166,-20.53082 0.58895,-1.4546 1.7859,-2.18034 3.16628,-2.75763 z"
       id="path35"
       style="stroke-width:0.28438" />
    <path
       fill="#602d72"
       d="m 142.56125,196.75531 c 0.46127,-0.0438 1.44238,-0.15385 1.82629,0.0444 2.77612,1.43299 6.02545,3.45038 8.53169,5.26956 5.0577,3.67135 -0.93817,6.32092 -3.75922,8.08863 -1.63376,1.07324 -4.42495,3.28174 -6.37296,3.08296 -1.34084,-0.13679 -2.40755,-2.15077 -2.45676,-3.37873 -0.1382,-3.44411 -0.21245,-7.10181 0.0973,-10.53854 0.11291,-1.24815 1.18672,-1.95057 2.1337,-2.56825 z"
       id="path36"
       style="stroke-width:0.28438" />
    <path
       fill="#fdfdfc"
       d="m 144.33038,201.47744 c 0.94358,0.45302 4.42809,2.82645 5.49735,3.52944 l -2.30006,1.47337 -3.19018,2.04441 z"
       id="path37"
       style="stroke-width:0.28438" />
    <path
       fill="#fdfdfc"
       d="m 48.681974,192.26096 c 1.940895,-0.0511 7.374549,-0.54743 8.717392,0.63929 0.705254,1.82231 0.369415,11.24184 0.296904,13.66305 -0.02916,0.97257 -0.42173,1.38351 -1.129277,1.94288 -1.457443,0.0805 -7.732291,0.43595 -8.330346,-0.44249 -1.303876,-1.91673 -0.504484,-10.64606 -0.648671,-13.25695 -0.07192,-1.30502 0.388764,-1.9227 1.094014,-2.54578 z"
       id="path38"
       style="stroke-width:0.28438" />
    <path
       fill="#602d72"
       d="m 49.468283,194.29201 6.366705,-0.0217 c 0.02798,3.59685 0.202481,8.82716 -0.06148,12.26276 l -6.344238,-0.006 c -0.0201,-4.07858 -0.0067,-8.15744 0.03901,-12.23574 z"
       id="path39"
       style="stroke-width:0.28438" />
    <path
       fill="#fdfdfc"
       d="m 73.118471,192.26636 c 0.834944,-0.0209 8.225417,-0.43793 8.490175,0.39161 1.301031,4.07716 0.492543,9.98857 0.515013,14.34356 0.0033,0.68308 -0.526966,1.10738 -1.01325,1.48986 -1.555562,0.0796 -7.619401,0.43113 -8.361628,-0.40608 -1.352514,-1.52485 -0.534068,-10.1066 -0.718629,-12.45301 -0.115467,-1.46513 0.175761,-2.49629 1.088319,-3.36593 z"
       id="path40"
       style="stroke-width:0.28438" />
    <path
       fill="#602d72"
       d="m 74.064885,194.28063 6.170483,-5.6e-4 c 0.05182,4.08398 0.04492,8.16853 -0.02049,12.25222 l -6.188102,-0.006 c -0.03113,-4.08199 -0.01892,-8.16455 0.03823,-12.24626 z"
       id="path41"
       style="stroke-width:0.28438" />
    <path
       fill="#fdfdfc"
       d="m 61.109102,192.24931 c 6.283663,-0.15811 9.590147,-1.93692 8.756059,6.29788 -0.249416,2.46387 0.803373,8.58515 -1.16852,9.9314 -1.839366,0.10239 -7.104943,0.54175 -8.400016,-0.59833 -0.712659,-1.78733 -0.345809,-11.03395 -0.318775,-13.40085 0.013,-1.13154 0.316214,-1.55414 1.131263,-2.2301 z"
       id="path42"
       style="stroke-width:0.28438" />
    <path
       fill="#602d72"
       d="m 61.82602,194.26386 6.058432,-0.003 c 0.02956,4.08854 0.0331,8.17707 0.01143,12.2656 l -6.085451,0.0118 z"
       id="path43"
       style="stroke-width:0.28438" />
    <path
       fill="#fdfdfc"
       d="m 48.570216,212.31346 c 2.043837,-0.0416 6.321192,-0.64668 7.866808,0.62222 1.098558,0.90206 0.553117,3.44471 -0.427712,4.44003 -2.058348,0.0418 -6.255502,0.66346 -7.816759,-0.56648 -1.0886,-0.85769 -0.618244,-3.49902 0.377651,-4.49577 z"
       id="path44"
       style="stroke-width:0.28438" />
    <path
       fill="#fdfdfc"
       d="m 61.387227,212.34644 c 1.607601,-0.003 6.652786,-0.65122 7.7522,0.72944 0.809343,1.0161 0.710093,3.34659 -0.492835,4.31547 -0.759858,-0.002 -4.000376,0.001 -4.520789,0.13766 -3.744434,0.9794 -5.270125,-3.46403 -2.738576,-5.18255 z"
       id="path45"
       style="stroke-width:0.28438" />
    <path
       fill="#fdfdfc"
       d="m 99.366189,212.47271 c 2.221571,-0.1948 8.706861,-1.09571 8.367891,2.14822 -0.13451,1.2871 0.17347,1.7876 -0.80651,2.77298 -2.07967,0.11176 -5.87729,0.50307 -7.727456,-0.58725 -1.29962,-0.76583 -0.689628,-3.37473 0.166067,-4.33395 z"
       id="path46"
       style="stroke-width:0.28438" />
    <path
       fill="#fdfdfc"
       d="m 87.732481,212.36209 c 1.380659,-0.024 5.345497,-0.22979 6.294469,0.2807 0.909161,0.48884 1.661638,4.42609 -0.905749,4.77957 -1.851882,-0.004 -4.992291,0.33699 -6.59847,-0.34722 -1.055047,-0.44932 -0.908026,-3.44072 -0.192825,-4.18153 0.503072,-0.52127 0.759862,-0.43538 1.402563,-0.53151 z"
       id="path47"
       style="stroke-width:0.28438" />
    <path
       fill="#fdfdfc"
       d="m 75.770882,212.36864 c 1.580586,-0.037 4.208831,-0.24658 5.566177,0.34951 1.149466,1.06472 0.932195,3.01727 0.105851,4.26314 -0.307701,0.46383 -1.084064,0.42174 -1.607601,0.47007 -1.576887,-0.0355 -4.864604,0.2932 -6.085171,-0.38191 -1.087189,-1.1597 -0.873331,-3.04456 0.08138,-4.25546 0.390183,-0.4951 1.335738,-0.43283 1.939476,-0.44533 z"
       id="path48"
       style="stroke-width:0.28438" />
    <path
       fill="#fdfdfc"
       d="m 113.49391,212.36408 c 1.67016,-0.0221 4.42864,-0.17659 5.9188,0.25481 1.28995,0.96063 1.14207,3.01699 0.39672,4.32258 -0.24402,0.42713 -0.89239,0.42912 -1.34285,0.48856 -3.10202,0.0467 -8.92869,1.24303 -6.47846,-4.45424 0.21528,-0.50052 1.02405,-0.52952 1.50579,-0.61171 z"
       id="path49"
       style="stroke-width:0.28438" />
    <path
       fill="url(#gradient_3)"
       d="m 243.33874,85.215747 c 0.86225,0.452736 20.22511,19.987933 21.23296,21.464723 -2.2631,2.83157 -11.38744,9.79575 -11.43948,12.86308 -0.0404,2.37116 2.34472,3.94491 3.30849,5.94553 1.45772,3.02495 2.71098,8.99039 4.9283,11.26942 0.46013,0.47263 0.94613,0.74109 1.59424,0.87361 2.9402,0.60004 11.73095,0.11945 15.28115,0.14502 l 0.0248,29.94551 c -3.16969,0.026 -15.84395,-0.84574 -17.7948,0.98339 -1.91673,1.79729 -2.6581,7.23947 -3.82121,9.79235 -0.97856,2.14764 -3.51977,5.09324 -3.56186,7.47294 -0.015,0.83863 0.23633,1.60617 0.70782,2.29408 1.04168,1.52031 2.65896,2.79262 3.99412,4.06153 2.33504,2.21845 4.69426,4.41443 6.94768,6.71677 -6.94967,6.3849 -14.88047,14.45305 -21.57677,21.18746 -1.81149,-1.81861 -11.37918,-12.54088 -13.26263,-12.18512 -3.3881,0.63957 -13.28936,4.65217 -15.91989,6.90901 -1.29733,1.11278 -0.759,13.21742 -0.73512,15.69181 l -30.89733,-0.0362 c 0.01,-4.27195 0.0498,-8.54419 0.0401,-12.8153 -0.003,-1.36503 -0.29604,-3.01841 -1.27858,-4.03024 -1.57745,-1.62494 -4.29385,-1.75462 -6.42613,-1.99919 l -0.0154,-4.71104 -0.0225,-11.04021 c 15.86101,6.52795 32.27487,7.18089 47.76676,-1.16481 11.52707,-6.30983 20.06728,-16.95361 23.7321,-29.57811 3.58858,-12.10577 1.78107,-24.6313 -4.20713,-35.64192 -6.42955,-11.60612 -17.18878,-20.19525 -29.92703,-23.89105 -11.996,-3.52149 -26.43909,-2.0302 -37.42555,3.95572 l -0.0628,-16.145684 c 4.35643,-1.286812 7.49228,-0.157515 7.92397,-6.023733 10.20556,0.104039 20.55016,0.01222 30.76595,-0.0011 0.0586,1.287679 0.14136,2.632221 1.08491,3.606225 1.14776,1.184437 13.88116,5.640959 15.91647,5.66912 2.01625,0.02798 11.10647,-9.658967 13.12414,-11.583085 z"
       id="path50"
       style="fill:url(#gradient_3);stroke-width:0.28438" />
    <path
       fill="url(#gradient_4)"
       d="m 188.53443,128.01125 c 1.93464,-0.18514 2.35211,0.16011 4.00264,1.11761 11.6522,6.75915 23.36411,13.40085 34.90397,20.35223 2.40387,1.44806 2.6126,3.94322 0.23432,5.62475 -4.52847,2.98345 -9.39194,5.61623 -14.10554,8.31584 l -14.55884,8.44952 c -2.52131,1.4654 -5.06736,3.05537 -7.69418,4.29016 -2.40017,1.12813 -5.38588,-0.81788 -5.4328,-3.45921 -0.0484,-2.7218 -0.0221,-5.43336 -0.024,-8.15289 l -0.015,-16.29015 c -0.004,-5.28804 -0.1453,-11.90642 0.16978,-17.23429 0.075,-1.27259 1.46826,-2.36035 2.51933,-3.01357 z"
       id="path52"
       style="fill:url(#gradient_4);stroke-width:0.28438" />
    <path
       fill="#fdfdfc"
       d="m 189.99244,132.63271 c 11.33454,6.5416 22.63382,13.14405 33.89755,19.80736 -4.13773,2.45732 -8.404,4.87143 -12.57558,7.28383 -7.05234,4.10617 -14.13056,8.16797 -21.23409,12.18512 -0.33245,-12.71179 -0.079,-26.4829 -0.0878,-39.27631 z"
       id="path53"
       style="stroke-width:0.28438" />
    <path
       fill="#2778a9"
       d="m 285.60729,156.12678 c 15.0588,8.69662 40.24348,8.56864 55.3668,0.13422 -0.14503,5.55821 0.23881,11.27795 -0.0627,16.83815 -0.0237,0.44904 -0.31015,0.84887 -0.59153,1.18445 -11.45765,9.24093 -38.28323,8.8334 -51.17133,2.35494 -1.23648,-0.62136 -3.27464,-2.08053 -3.37816,-3.5775 -0.38419,-5.56588 -0.18798,-11.33482 -0.16323,-16.93426 z"
       id="path54"
       style="stroke-width:0.28438" />
    <path
       fill="#fdfdfc"
       d="m 309.00125,168.01301 c 1.01241,-0.26164 2.05038,0.33729 2.33192,1.34683 0.28138,1.00983 -0.29872,2.05862 -1.30245,2.3595 -0.66545,0.19961 -1.38777,0.0236 -1.8883,-0.46069 -0.50048,-0.48431 -0.69958,-1.20123 -0.52042,-1.87435 0.17615,-0.67313 0.70529,-1.19781 1.37925,-1.37129 z"
       id="path55"
       style="stroke-width:0.28438" />
    <path
       fill="#fdfdfc"
       d="m 289.9222,163.50416 c 1.00385,-0.26932 2.04183,0.31026 2.34043,1.30758 0.29871,0.99761 -0.25301,2.05124 -1.23987,2.37771 -0.66545,0.21982 -1.39632,0.0606 -1.91104,-0.41549 -0.51191,-0.47605 -0.72803,-1.19382 -0.55739,-1.87377 0.16788,-0.67996 0.69103,-1.21459 1.36787,-1.39603 z"
       id="path56"
       style="stroke-width:0.28438" />
    <path
       fill="#fdfdfc"
       d="m 302.03679,166.97475 c 0.94982,-0.43853 2.07596,-0.0363 2.53381,0.9046 0.45785,0.94102 0.0796,2.0757 -0.85312,2.55317 -0.61713,0.31795 -1.36219,0.27586 -1.94232,-0.11038 -0.5773,-0.38593 -0.90435,-1.05534 -0.85032,-1.7498 0.054,-0.69474 0.47779,-1.30587 1.11195,-1.59764 z"
       id="path57"
       style="stroke-width:0.28438" />
    <path
       fill="#fdfdfc"
       d="m 295.85719,165.56393 c 0.9726,-0.41491 2.0959,0.0366 2.51111,1.00898 0.41517,0.97201 -0.0355,2.09701 -1.00673,2.5125 -0.97256,0.41576 -2.09586,-0.0359 -2.51107,-1.00841 -0.41521,-0.97259 0.0355,-2.09788 1.00669,-2.51307 z"
       id="path58"
       style="stroke-width:0.28438" />
    <path
       fill="url(#gradient_5)"
       d="m 379.14646,172.27644 c 0.70242,-0.0947 1.68069,-0.18088 2.26081,0.2335 1.04365,1.14291 0.72515,3.774 0.75644,5.49051 l 2.84664,0.86652 c 1.05504,-1.47509 2.06177,-2.93197 3.259,-4.2987 1.71482,0.82527 4.21453,2.65953 5.36625,4.18153 -0.96405,1.32521 -2.09586,2.7272 -3.10543,4.0345 l 1.73188,2.44084 c 6.06583,-2.05408 6.05444,-1.42276 6.89905,4.97636 -1.40767,0.66772 -3.42677,1.21146 -4.95676,1.67272 -0.11389,0.96605 -0.21911,1.93294 -0.31842,2.9004 1.6494,0.78176 3.04856,1.43384 4.61836,2.3868 -0.77068,2.29922 -1.48732,4.05868 -2.80683,6.08432 -1.18021,-0.26447 -3.75382,-1.36589 -5.01363,-1.85417 l -1.91103,2.00489 c 0.89863,1.5365 1.66646,2.90465 2.47694,4.48808 -1.6693,1.34683 -4.32827,2.54435 -6.30756,3.30791 -1.26265,-1.66277 -1.40483,-2.79289 -2.62768,-4.32343 -0.32985,-0.41377 -0.98962,-0.27357 -1.57829,-0.26534 l -0.59148,0.14704 c -0.65127,0.45045 -1.43045,3.93381 -1.78308,5.03124 -2.52246,-0.0987 -4.54722,-0.72545 -6.79098,-1.86638 0.30147,-1.69093 0.79057,-3.13444 1.30528,-4.76281 -0.85882,-0.83692 -1.5783,-1.33942 -2.53952,-2.03871 -1.36786,1.01239 -2.7528,2.08223 -4.22305,2.93281 -1.52995,-1.44408 -2.91488,-3.41285 -4.03534,-5.18397 1.04085,-1.10993 2.44285,-2.40415 3.55192,-3.48678 -0.18483,-0.82413 -0.33537,-1.72363 -0.49481,-2.55913 -1.54706,-0.1533 -3.81072,0.0229 -5.17859,-0.62706 -0.79909,-1.06387 -0.3981,-6.2413 0.65122,-7.13111 1.11763,-0.13281 3.51496,0.26419 4.73209,0.424 0.44079,-0.84774 0.89012,-1.94402 1.28543,-2.83385 -1.24275,-1.24046 -2.57932,-2.40102 -3.57466,-3.83629 1.12897,-1.82458 3.78794,-3.9617 5.49137,-5.25818 1.13469,1.03173 2.35182,2.42604 3.40402,3.57693 l 2.99453,-1.05988 c -0.26443,-1.6588 -0.32433,-3.58234 -0.37832,-5.25734 1.62099,-0.37253 2.93767,-0.42856 4.58423,-0.53776 z"
       id="path59"
       style="fill:url(#gradient_5);stroke-width:0.28438" />
    <path
       fill="#fdfdfc"
       d="m 378.23644,184.16267 c 4.2202,-0.54913 8.09346,2.4104 8.67643,6.62919 0.58297,4.21877 -2.34615,8.11791 -6.55779,8.7336 -4.25718,0.62279 -8.21008,-2.34615 -8.79873,-6.61242 -0.58868,-4.26598 2.41152,-8.19497 6.68009,-8.75037 z"
       id="path60"
       style="stroke-width:0.28438" />
    <path
       fill="#2778a9"
       d="m 285.62464,135.0343 c 1.06953,0.52212 2.09104,1.33089 3.25103,1.85359 14.13652,6.36357 39.11932,7.24003 52.06149,-1.20037 -0.0851,4.23641 0.0567,8.48448 0.0315,12.72117 -0.008,1.2217 0.18758,3.18392 -0.58014,4.15508 -5.97199,5.23885 -17.98988,7.13908 -26.1146,7.11861 -9.02907,-0.25423 -20.23652,-1.14008 -27.62526,-6.66559 -1.49386,-1.11733 -1.05932,-5.34009 -1.05534,-7.15045 z"
       id="path61"
       style="stroke-width:0.28438" />
    <path
       fill="#fdfdfc"
       d="m 302.17047,145.91639 c 1.00668,-0.38987 2.1385,0.11006 2.53096,1.1179 0.39251,1.00756 -0.10797,2.14194 -1.11478,2.53468 -1.00669,0.39385 -2.14422,-0.10581 -2.53665,-1.11562 -0.3925,-1.00956 0.11074,-2.14594 1.12047,-2.53696 z"
       id="path62"
       style="stroke-width:0.28438" />
    <path
       fill="#fdfdfc"
       d="m 308.77375,147.15515 c 0.95837,-0.41918 2.07883,-0.002 2.52813,0.94329 0.44933,0.94499 0.0682,2.07655 -0.85883,2.55771 -0.62849,0.32591 -1.38493,0.28268 -1.97358,-0.11232 -0.58868,-0.395 -0.91285,-1.07922 -0.85031,-1.78477 0.0627,-0.70554 0.5062,-1.32037 1.15459,-1.6039 z"
       id="path63"
       style="stroke-width:0.28438" />
    <path
       fill="#fdfdfc"
       d="m 289.7743,142.65256 c 0.6541,-0.24741 1.39064,-0.12032 1.92526,0.33186 0.53465,0.45244 0.78206,1.15884 0.64555,1.84562 -0.13635,0.68649 -0.63416,1.2453 -1.29961,1.45973 -0.99534,0.3205 -2.06461,-0.21159 -2.40869,-1.19838 -0.34482,-0.98708 0.15921,-2.06916 1.13749,-2.43885 z"
       id="path64"
       style="stroke-width:0.28438" />
    <path
       fill="#fdfdfc"
       d="m 295.83445,144.70834 c 0.65123,-0.275 1.39916,-0.17005 1.948,0.27302 0.55172,0.44306 0.81331,1.1526 0.68252,1.84677 -0.13084,0.69445 -0.63133,1.26094 -1.30245,1.47507 -0.97828,0.31082 -2.02481,-0.20133 -2.38027,-1.16311 -0.35547,-0.96149 0.10798,-2.03274 1.0522,-2.43174 z"
       id="path65"
       style="stroke-width:0.28438" />
    <path
       fill="url(#gradient_6)"
       d="m 375.13101,102.61412 c 9.62625,-0.56905 17.90739,6.73526 18.55294,16.36096 0.64555,9.62597 -6.58909,17.97083 -16.20395,18.69201 -9.72582,0.72915 -18.18043,-6.60843 -18.83165,-16.34247 -0.6541,-9.73433 6.74834,-18.13521 16.48266,-18.7105 z"
       id="path66"
       style="fill:url(#gradient_6);stroke-width:0.28438" />
    <path
       fill="#fdfdfc"
       d="m 373.9423,106.93982 c 7.29149,-1.24018 14.20192,3.69011 15.4077,10.99272 1.20291,7.30259 -3.75952,14.1917 -11.06521,15.35965 -7.25454,1.15999 -14.07965,-3.76263 -15.27692,-11.01404 -1.19439,-7.2517 3.69127,-14.10639 10.93443,-15.33833 z"
       id="path67"
       style="stroke-width:0.28438" />
    <path
       fill="url(#gradient_7)"
       d="m 375.7794,109.19069 c 5.98333,-0.22948 11.03676,4.40021 11.33536,10.383 0.29871,5.98307 -4.27137,11.09224 -10.24619,11.45853 -3.92729,0.24086 -7.6811,-1.64884 -9.82819,-4.94764 -2.14705,-3.29881 -2.35749,-7.49768 -0.54884,-10.99357 1.80865,-3.49617 5.35773,-5.7496 9.28786,-5.90032 z"
       id="path68"
       style="fill:url(#gradient_7);stroke-width:0.28438" />
    <path
       fill="#fdfdfc"
       d="m 375.30449,111.78452 c 4.56713,-0.45188 8.6423,2.8657 9.12856,7.43114 0.48914,4.56516 -2.79544,8.66961 -7.35404,9.19344 -4.6098,0.53008 -8.76743,-2.80029 -9.26225,-7.41692 -0.49197,-4.61663 2.86937,-8.75094 7.48773,-9.20766 z"
       id="path69"
       style="stroke-width:0.28438" />
    <path
       fill="#3387b3"
       d="m 374.85799,114.50775 c 2.00203,-0.4425 4.08654,0.23148 5.45157,1.76287 1.36502,1.53138 1.79729,3.68073 1.129,5.62048 -0.66831,1.93948 -2.33194,3.3665 -4.35103,3.73136 -3.03717,0.54885 -5.9549,-1.43556 -6.56348,-4.46335 -0.60571,-3.02779 1.31951,-5.98506 4.33394,-6.65136 z"
       id="path70"
       style="stroke-width:0.28438" />
    <path
       fill="#602d72"
       d="m 337.35111,181.47215 c 0.47207,-0.0847 2.18973,-0.11716 2.75847,-0.14049 0.43511,1.67443 0.81903,4.06778 1.14324,5.81699 1.54418,0.31823 2.41436,0.56933 3.9159,1.07268 1.15743,-1.24785 2.34043,-2.47153 3.54905,-3.66991 2.2466,1.39517 4.50175,3.41313 6.33885,5.30113 -0.93276,1.218 -2.57081,2.8947 -3.65143,4.13119 0.70525,1.68409 1.29677,3.0676 1.82,4.82905 1.7774,0.18002 3.34716,-0.18341 4.79183,0.86253 0.85599,1.21799 0.0938,5.34635 -0.11665,7.04693 -1.73755,0.0518 -3.65714,-0.0884 -5.40605,-0.17915 -0.74509,1.40939 -1.30816,2.4269 -2.17834,3.75837 0.93843,1.56864 1.8001,3.00619 2.63903,4.63739 -1.52996,1.58059 -4.32827,3.27805 -6.19951,4.40618 -1.03798,-1.05305 -2.57361,-3.41455 -3.46656,-4.70621 -1.3309,0.43852 -2.80687,0.51275 -4.16619,0.81902 -0.54884,0.1237 -0.57729,0.45785 -0.79624,0.94926 -0.47779,1.68951 -0.9157,3.08382 -1.50438,4.73835 -2.60206,-0.59123 -5.37764,-1.58714 -7.80339,-2.68654 0.32433,-1.62182 1.00385,-3.92246 1.43612,-5.57414 -1.27687,-0.99447 -2.22953,-1.92042 -3.40118,-3.04457 -1.64373,0.66773 -3.47516,1.5311 -5.11601,2.25627 -1.27687,-2.30177 -2.32908,-4.82735 -3.27039,-7.28554 1.28259,-0.73654 3.89033,-1.80524 5.32645,-2.44225 0.0158,-1.78221 0.20492,-3.38924 0.50904,-5.13904 -1.7404,-0.96006 -3.23623,-1.7569 -4.86289,-2.92144 1.04366,-2.47666 2.15277,-4.34589 3.6173,-6.59989 1.54419,0.80594 3.44954,2.10925 4.94821,3.07614 1.72053,-1.44892 2.74145,-2.13285 4.76622,-3.10286 -0.22739,-1.55386 -0.88157,-3.84597 -0.1935,-5.13079 1.10907,-1.04424 2.97179,-0.94471 4.57284,-1.07866 z"
       id="path71"
       style="stroke-width:0.28438" />
    <path
       fill="#fdfdfc"
       d="m 337.69239,193.36465 c 4.24291,-0.45018 8.05646,2.60265 8.54844,6.84331 0.49481,4.24039 -2.51962,8.08636 -6.75402,8.62127 -4.29131,0.54232 -8.20437,-2.52443 -8.70206,-6.8254 -0.50049,-4.30096 2.60494,-8.18276 6.90764,-8.63918 z"
       id="path72"
       style="stroke-width:0.28438" />
    <path
       fill="url(#gradient_8)"
       d="m 309.65535,121.15143 c 8.77595,-0.7246 22.15036,1.09288 29.39919,6.2413 1.62099,1.15003 2.53952,3.7649 0.84744,5.24026 -5.5454,4.83049 -15.16595,5.9117 -22.21861,6.22566 -9.65184,0.14502 -21.81195,-0.67768 -30.08824,-6.05702 -3.89973,-2.53439 -0.6666,-5.85027 2.31852,-7.27871 6.28198,-3.00732 12.89098,-3.94464 19.7417,-4.37149 z"
       id="path73"
       style="fill:url(#gradient_8);stroke-width:0.28438" />
    <path
       fill="#2778a9"
       d="m 360.71579,141.53239 0.33852,0.15215 c 0.50053,0.80394 0.90147,2.34443 1.19439,3.29796 1.14604,0.003 1.90253,0.0517 3.03717,0.16209 0.49769,-1.20407 1.00386,-2.40358 1.52145,-3.59855 2.37455,0.68536 3.77087,1.15771 5.90941,2.37827 -0.47207,0.95182 -1.19439,2.16839 -1.72617,3.11936 l 2.25228,2.24262 c 0.96972,-0.4223 2.04187,-0.79939 3.03717,-1.17136 1.15175,1.95369 1.70059,3.50726 2.3632,5.66997 -0.92992,0.49226 -2.13853,0.94528 -3.12816,1.34796 -0.0236,1.1526 -0.11665,2.42293 -0.17931,3.58462 0.86167,0.45785 1.7774,0.99305 2.63056,1.4728 -0.56595,1.81662 -1.29966,3.57636 -2.19261,5.25591 -0.92421,-0.23917 -2.26366,-0.75161 -3.2021,-1.07894 -0.58013,0.67512 -1.3508,1.42815 -1.97929,2.07684 0.32709,1.09059 0.56875,2.13114 0.83038,3.23653 -1.60389,0.8392 -2.73574,1.21316 -4.45056,1.80353 -0.86166,0.12087 -0.72231,0.22806 -1.42473,-0.0717 -0.62277,-0.61654 -0.87302,-1.96308 -1.11762,-2.8586 l -3.2021,-0.0876 c -0.50053,1.10766 -0.8048,1.82345 -1.48448,2.84551 -2.05889,-0.64611 -4.24295,-1.61926 -5.84116,-3.09149 l 1.21997,-2.78693 c -0.26167,-0.54686 -0.90431,-1.51233 -1.24271,-2.06062 -4.08086,1.1324 -4.16618,0.37281 -5.25251,-3.58746 -0.11074,-0.40268 -0.2333,-0.84859 -0.34404,-1.25496 1.13469,-0.54346 1.95655,-0.76926 3.15949,-1.129 0.0236,-1.06529 0.11941,-2.19997 0.18759,-3.26866 -1.2342,-0.50563 -1.91104,-0.79797 -3.06846,-1.46172 0.63703,-2.08564 1.35652,-3.60707 2.4343,-5.48483 1.25981,0.38506 1.93948,0.7755 3.09975,1.39062 0.71664,-0.73541 1.44463,-1.14236 2.3063,-1.68382 l -0.92137,-3.44441 c 1.69776,-0.91031 3.37845,-1.45148 5.23545,-1.91615 z"
       id="path74"
       style="stroke-width:0.28438" />
    <path
       fill="#fdfdfc"
       d="m 362.87136,150.43263 c 3.47515,-0.35404 6.58342,2.16982 6.95027,5.64551 0.36965,3.47569 -2.14138,6.59535 -5.61366,6.97783 -3.49218,0.38506 -6.63173,-2.14393 -7.00146,-5.6401 -0.37241,-3.49589 2.16983,-6.6272 5.66485,-6.98324 z"
       id="path75"
       style="stroke-width:0.28438" />
    <path
       fill="#2778a9"
       d="m 268.02379,104.95457 c 7.59067,-0.17517 15.65739,-0.0396 23.27766,-0.037 l 41.51946,-0.011 c 7.192,-0.004 12.2113,-0.82471 17.74535,4.69739 5.33496,5.327 4.41072,11.03992 4.37943,18.0132 l -0.008,11.87999 -2.61632,2.09759 -2.10725,1.85785 0.0453,-14.87309 c 0.008,-5.08016 0.91002,-11.59503 -2.82957,-15.5243 -3.87042,-4.06464 -9.52676,-3.25587 -14.65128,-3.23256 l -13.83792,0.0351 -51.52827,-0.008 c 1.61073,-2.05094 1.87208,-2.60321 0.61171,-4.89532 z"
       id="path76"
       style="stroke-width:0.28438" />
    <path
       fill="#3387b3"
       d="m 350.40701,83.236753 c 1.74324,0.210717 2.76415,0.388449 4.47046,0.797115 -0.46924,3.572373 0.60571,3.638074 3.46089,2.221005 1.00101,1.517455 1.61527,2.647295 2.45988,4.265982 -2.64187,1.682958 -2.98315,3.129887 0.26443,4.298403 -0.62561,1.760025 -1.07779,3.072161 -1.92522,4.755971 l -2.30635,-0.741096 c -1.47876,1.518597 -1.44747,1.631217 -1.05504,3.676477 -2.22386,0.66146 -3.99271,0.8517 -6.29901,1.005 -0.52043,-2.64901 -2.12151,-3.33523 -3.89032,-0.99306 -1.29961,-1.02121 -2.3945,-1.94033 -3.33577,-3.315589 l 1.45598,-1.65367 -0.87873,-2.060338 c -0.79624,-0.121417 -1.74039,-0.173476 -2.5537,-0.239445 0.0713,-1.74922 0.20768,-3.106857 0.42088,-4.848392 0.81047,0.116295 1.3309,0.241732 2.12999,0.07704 0.63416,-0.284372 0.91002,-0.996475 1.24846,-1.627511 l -1.41906,-1.698603 c 1.23703,-1.321795 2.31481,-2.081366 3.80496,-3.079542 1.95939,2.57989 3.11398,2.158716 3.94723,-0.839779 z"
       id="path77"
       style="stroke-width:0.28438" />
    <path
       fill="#fdfdfc"
       d="m 350.1027,89.459546 c 2.36888,-0.355741 4.57284,1.286256 4.9084,3.657416 0.33852,2.371156 -1.31951,4.563729 -3.69123,4.883938 -2.34614,0.316529 -4.5103,-1.320664 -4.84586,-3.666792 -0.33261,-2.346143 1.28826,-4.522779 3.62869,-4.874562 z"
       id="path78"
       style="stroke-width:0.28438" />
    <path
       fill="#45517c"
       d="m 269.89728,199.21519 40.42349,0.0825 c 3.11114,0.006 6.41561,-0.0185 9.5381,0.004 0.46073,0.003 0.66829,0.60516 0.83326,0.96461 -0.14227,2.12092 -4.08087,-0.2039 -4.27708,4.02398 l -30.11957,-0.0396 c -7.04977,-0.0232 -14.39019,-0.17746 -21.4158,-0.009 1.6858,-1.66248 3.35824,-3.33833 5.0176,-5.02698 z"
       id="path79"
       style="stroke-width:0.28438" />
    <path
       fill="#3387b3"
       d="m 388.22671,148.9385 c 0.42088,0.001 0.22187,-0.0535 0.59435,0.23688 0.79342,2.61942 1.86268,2.97262 3.88745,1.05334 4.86293,3.68301 0.5574,3.43077 2.38027,5.10633 0.79629,0.28382 1.48448,0.0763 2.31202,-0.0814 0.39251,1.20748 0.60003,2.39619 0.8446,3.64007 -1.28538,0.31511 -2.4741,0.36287 -2.59355,1.85984 0.30148,0.83779 0.69674,1.09799 1.37354,1.69349 -0.70241,1.15713 -1.16593,1.78363 -2.0077,2.84721 -2.34898,-1.54361 -3.46089,-1.20122 -2.98598,1.8243 -1.00105,0.25253 -2.16983,0.44364 -3.19646,0.63645 -0.92137,-0.37994 -0.87873,-2.17069 -2.31485,-2.10385 -0.67113,0.30857 -0.99818,0.9996 -1.39345,1.6386 -5.17569,-3.01984 -1.21145,-3.07642 -2.98597,-4.54752 -0.79913,-0.22325 -1.38208,0.007 -2.18404,0.21442 -1.14892,-2.25173 -1.36787,-2.88647 0.65406,-4.57169 1.09203,-0.91201 -0.68819,-2.17524 -1.40484,-2.7221 0.60004,-1.46484 1.61812,-2.95896 2.52528,-4.24323 3.58034,2.38509 2.79264,0.39927 3.59173,-1.65424 0.16197,-0.41548 2.2665,-0.71436 2.90354,-0.82697 z"
       id="path80"
       style="stroke-width:0.28438" />
    <path
       fill="#fdfdfc"
       d="m 387.61245,154.29565 c 2.25227,-0.39385 4.39936,1.09941 4.81453,3.34744 0.41804,2.24774 -1.05505,4.41158 -3.29597,4.8501 -1.24274,0.24315 -2.52813,-0.0924 -3.49502,-0.91173 -0.96405,-0.81929 -1.50721,-2.03331 -1.47025,-3.29965 0.0568,-1.97901 1.49867,-3.64519 3.44671,-3.98616 z"
       id="path81"
       style="stroke-width:0.28438" />
    <path
       fill="#3387b3"
       d="m 373.74325,97.415085 c 5.51978,-0.639855 11.07943,0.801659 15.59537,4.043035 4.93114,3.51493 8.25556,8.84934 9.24518,14.82387 0.94699,6.11901 -0.58297,12.36314 -4.24862,17.35089 -3.92729,5.39554 -9.35613,8.22256 -15.83143,9.24604 -0.69391,-0.61084 -1.37071,-1.43554 -1.9878,-2.13826 8.28395,-0.79085 14.67116,-5.05513 18.24866,-12.63385 0.546,-1.30247 0.93276,-2.41013 1.25126,-3.79477 1.2029,-5.1854 0.2731,-10.6361 -2.57933,-15.12959 -2.90066,-4.58564 -7.4906,-7.84236 -12.77435,-9.06263 -7.05262,-1.587122 -14.38965,0.7775 -19.35775,6.00468 -3.08553,3.24706 -4.46762,6.96476 -5.44302,11.26203 -0.15369,-1.19923 -0.38108,-2.51592 -0.57162,-3.66482 -0.37556,-2.24972 1.60109,-5.99473 3.00021,-7.73599 4.00977,-4.99229 9.23667,-7.712945 15.45324,-8.570635 z"
       id="path82"
       style="stroke-width:0.28438" />
    <path
       fill="#2778a9"
       d="m 350.19657,169.00493 c 1.33942,0.76384 3.32438,2.17267 4.86856,3.08524 l 0.054,13.8294 c -1.01808,-0.55596 -4.03251,-3.04769 -4.91408,-3.79761 z"
       id="path102"
       style="stroke-width:0.28438" />
    <path
       fill="#2778a9"
       d="m 356.17137,124.89529 c 1.3508,3.96654 2.44852,6.3522 5.38047,9.50399 0.75077,0.80679 1.67786,1.62267 2.37176,2.4306 l 0.10246,0.12086 c -0.89011,-0.039 -1.88829,-0.16665 -2.78408,-0.26021 -4.26286,-2.99623 -5.25536,-6.83764 -5.07049,-11.79524 z"
       id="path113"
       style="stroke-width:0.28438" />
    <path
       fill="#2778a9"
       d="m 356.40459,193.18236 c 0.56023,0.60942 0.6057,2.0919 0.0796,2.75508 -0.19901,0.25052 -0.67396,0.22183 -1.00385,0.26132 -0.30699,-0.42202 -0.33261,-0.48174 -0.44078,-0.99219 0.10522,-0.82584 0.78773,-1.40315 1.36503,-2.02422 z"
       id="path185"
       style="stroke-width:0.28438" />
    <text
       xml:space="preserve"
       style="font-style:normal;font-variant:normal;font-weight:500;font-stretch:normal;font-size:53.3333px;font-family:Rubik;-inkscape-font-specification:'Rubik Medium';text-align:start;writing-mode:lr-tb;direction:ltr;text-anchor:start;fill:url(#linearGradient4);stroke:#000000;stroke-width:0.165"
       x="67.412872"
       y="44.594833"
       id="text1"><tspan
         sodipodi:role="line"
         id="tspan1"
         style="font-size:53.3333px;fill:url(#linearGradient4);stroke-width:0.165"
         x="67.412872"
         y="44.594833">Smart Video Processor</tspan></text>
    <text
       xml:space="preserve"
       style="font-style:normal;font-variant:normal;font-weight:500;font-stretch:normal;font-size:21.3333px;font-family:Rubik;-inkscape-font-specification:'Rubik Medium';text-align:start;writing-mode:lr-tb;direction:ltr;text-anchor:start;fill:#45517c;fill-opacity:1;stroke:#000000;stroke-width:0.165"
       x="48.147469"
       y="70.77301"
       id="text4"><tspan
         sodipodi:role="line"
         id="tspan4"
         style="font-size:21.3333px;fill:#45517c;fill-opacity:1;stroke-width:0.165"
         x="48.147469"
         y="70.77301">Organize, Enhance and Encode Your Media Library Effortlessly</tspan></text>
  </g>
</svg>
