<?xml version="1.0" encoding="UTF-8" standalone="no"?>
<svg
   width="1024"
   height="1024"
   viewBox="0 0 1024 1024"
   version="1.1"
   id="svg19"
   sodipodi:docname="icon-new-3.svg"
   inkscape:version="1.4.2 (2aeb623e1d, 2025-05-12)"
   xmlns:inkscape="http://www.inkscape.org/namespaces/inkscape"
   xmlns:sodipodi="http://sodipodi.sourceforge.net/DTD/sodipodi-0.dtd"
   xmlns="http://www.w3.org/2000/svg"
   xmlns:svg="http://www.w3.org/2000/svg">
  <defs
     id="defs19">
    <linearGradient
       id="gradient_5"
       gradientUnits="userSpaceOnUse"
       x1="1261.4935"
       y1="543.91772"
       x2="1379.649"
       y2="479.57996"
       gradientTransform="matrix(0.28438009,0,0,0.28438009,-294.24418,558.41653)">
      <stop
         offset="0"
         stop-color="#2275A9"
         id="stop58" />
      <stop
         offset="1"
         stop-color="#2D8EBC"
         id="stop59" />
    </linearGradient>
  </defs>
  <sodipodi:namedview
     id="namedview19"
     pagecolor="#ffffff"
     bordercolor="#000000"
     borderopacity="0.25"
     inkscape:showpageshadow="2"
     inkscape:pageopacity="0.0"
     inkscape:pagecheckerboard="0"
     inkscape:deskcolor="#d1d1d1"
     inkscape:zoom="0.78417969"
     inkscape:cx="512"
     inkscape:cy="512"
     inkscape:window-width="1870"
     inkscape:window-height="1011"
     inkscape:window-x="50"
     inkscape:window-y="32"
     inkscape:window-maximized="1"
     inkscape:current-layer="svg19" />
  <path
     fill="#303030"
     d="m 705.61416,4.6385691 c 3.51113,1.9745325 61.91481,102.0998709 67.40753,113.2574709 -9.44352,6.83154 -23.54006,15.38581 -33.55825,21.80121 -21.33925,13.73367 -42.80731,27.26793 -64.4017,40.59908 l -127.43984,79.2884 c -110.45016,69.87462 -221.36724,139.00738 -332.74503,207.39456 0.88676,3.59535 1.33757,7.19936 1.88252,10.86283 L 812.09247,320.63013 c 4.33596,12.59301 10.33894,34.84379 13.93678,47.59535 2.48938,8.82177 20.04875,67.85214 19.15208,70.85177 -2.63925,2.07696 -3.24362,2.84111 -2.30732,6.17143 12.04188,42.82961 24.23238,85.61834 36.29655,128.44052 l 71.16142,257.45574 c -30.49049,8.53445 -62.95515,16.63298 -93.67848,24.58783 l -362.54817,97.51905 -153.20671,42.35774 c -26.67097,7.28974 -58.02717,16.43114 -84.59659,22.22104 -4.71371,-14.8347 -8.98156,-32.16987 -13.07726,-47.32162 L 222.07129,892.69316 C 199.39817,808.10645 176.12066,723.68325 152.2425,639.42973 144.3186,611.44718 136.24981,583.50675 128.03364,555.60719 124.52128,543.30027 120.49989,526.85306 116.5429,515.33012 114.81397,510.29934 103.22413,492.58021 99.793499,486.51283 85.836904,461.82592 68.919073,436.32037 55.821997,411.3808 83.507302,393.52419 113.46277,375.68616 141.62242,358.14164 L 324.67931,243.55119 C 451.25344,163.27322 578.23378,83.63433 705.61416,4.6385691 Z"
     id="path2"
     style="stroke-width:1.2385" />
  <path
     fill="#ffffff"
     d="m 822.18,450.594 c 0.62668,-0.0607 0.17464,-0.0533 1.30786,0.34804 1.4961,3.26837 2.79527,9.3952 3.71053,13.11565 -18.76691,5.0642 -37.5623,10.02686 -56.38369,14.88422 l 59.85271,218.53357 57.66306,-14.80373 c 1.37969,4.72487 2.64667,9.6615 3.93841,14.42599 -22.36472,5.193 -45.82553,11.61956 -68.1209,17.39341 L 660.61718,757.9301 250.36716,866.61912 c 4.06103,13.2841 7.88673,28.91886 11.55143,42.44816 l 17.91606,66.04519 c 15.91094,-4.67531 33.72544,-8.99766 49.92373,-13.42279 l 128.35383,-34.8599 432.54167,-116.74172 c 9.69866,-2.23673 20.87731,-5.64011 30.80384,-8.127 0.98832,4.4722 2.55748,9.63548 3.80465,14.11016 L 270.52242,992.57649 C 266.07871,979.05461 261.98795,962.43772 258.06937,948.50466 246.84117,907.9192 235.90278,867.25448 225.2567,826.51172 207.22298,759.12896 187.36496,692.35803 169.76595,624.83035 256.01717,601.20608 342.40586,578.08957 428.92833,555.4821 Z"
     id="path3"
     style="stroke-width:1.2385" />
  <path
     fill="#303030"
     d="m 561.19209,534.84135 1.00814,-0.12632 c 2.5996,2.1748 53.11406,195.42574 59.21365,218.15335 -18.38546,3.93098 -42.71071,11.22694 -61.47142,16.26514 l -121.85423,32.42625 c -0.83722,0.0186 -0.33068,0.0842 -1.44161,-0.51891 -2.17108,-5.78996 -4.86479,-17.23861 -6.52686,-23.52273 l -11.4536,-43.3795 C 405.47125,684.34372 392.38284,633.07377 378.36927,583.55628 Z"
     id="path4"
     style="stroke-width:1.2385" />
  <path
     fill="#303030"
     d="m 756.27848,482.83574 0.58829,0.15481 c 2.01008,3.22381 11.25791,39.12651 13.10204,45.75369 l 46.95751,172.32411 c -13.92191,4.37313 -32.5241,8.32145 -47.05536,12.3416 -44.14365,12.21032 -88.87063,23.2515 -132.99696,35.52992 l -1.0812,0.0384 c -2.18222,-1.60014 -12.44191,-43.39932 -14.09035,-49.57321 L 592.19903,588.48303 c -5.06048,-18.96011 -10.05038,-38.75496 -15.53566,-57.54416 16.07689,-5.20664 39.0683,-10.5371 55.92668,-15.07372 z"
     id="path5"
     style="stroke-width:1.2385" />
  <path
     fill="#303030"
     d="m 363.50858,587.50089 0.92764,0.10653 c 1.86516,2.35932 54.29931,201.70243 58.47675,218.06047 -38.36114,9.86954 -76.7656,20.81041 -115.08214,30.89671 -20.24319,5.328 -40.51611,11.34957 -60.85342,16.30477 L 186.93149,634.68876 c 16.72586,-5.39612 41.44125,-11.13282 58.95232,-15.79698 z"
     id="path6"
     style="stroke-width:1.2385" />
  <path
     fill="#ffffff"
     d="m 476.11869,432.7795 0.3703,0.45207 c -0.34679,5.23387 -7.22787,25.75944 -9.18715,31.97543 l -20.25682,64.12553 c -29.43282,6.97149 -60.50912,15.98772 -90.1178,23.50167 l -0.75424,-1.03166 c 0.45947,-6.07977 9.9934,-33.9459 12.42829,-41.26293 6.12435,-18.42137 12.09018,-36.89475 17.89872,-55.41889 8.05145,-1.38464 16.48437,-3.97062 24.46645,-5.79493 21.37269,-4.88709 43.83527,-12.03197 65.15225,-16.54629 z"
     id="path7"
     style="stroke-width:1.2385" />
  <path
     fill="#ffffff"
     d="m 727.53426,365.84508 0.69975,0.54247 c 0.3406,5.59675 -25.03615,83.77919 -28.55596,95.41608 -29.06375,7.81365 -58.97958,16.13014 -88.21175,22.96416 l -0.29973,-0.34555 c -1.10102,-3.48263 26.38241,-85.49945 29.73874,-96.10591 27.62338,-5.76271 58.80742,-15.6583 86.62895,-22.47125 z"
     id="path8"
     style="stroke-width:1.2385" />
  <path
     fill="#ffffff"
     d="m 600.33347,399.8306 c 0.57962,-0.0803 1.18895,0.0446 1.80572,0.11022 0.88181,3.92232 -25.49688,84.35138 -29.34984,95.29966 -27.88717,8.09728 -57.59493,15.44279 -85.79422,23.14375 -1.46142,0.23159 -0.81121,0.38641 -1.97291,-0.36164 -0.16473,-4.52422 26.71184,-87.79687 30.16972,-96.06506 25.65912,-7.75298 59.04646,-15.50967 85.14153,-22.12694 z"
     id="path9"
     style="stroke-width:1.2385" />
  <path
     fill="#ffffff"
     d="m 346.61426,466.06281 c 0.43102,0.12633 0.86202,0.25264 1.29301,0.37897 0.75299,4.56882 -26.2437,86.55219 -30.06197,97.05709 l -84.7378,22.43161 -1.06138,0.0284 c -1.34997,-2.49682 1.21867,-7.45821 2.02865,-10.25969 2.77671,-9.61444 5.87418,-19.11368 9.01376,-28.61294 6.63958,-19.74903 12.97447,-39.59839 19.00345,-59.54185 10.92848,-2.0039 23.41251,-5.51626 34.24561,-8.33755 z"
     id="path10"
     style="stroke-width:1.2385" />
  <path
     fill="#ffffff"
     d="m 528.78688,140.89489 c 11.97006,4.28271 25.71116,10.20518 37.56849,15.05141 l 64.76459,26.49635 c -22.11332,14.6489 -44.98458,28.55967 -67.20814,43.17639 -2.01132,-0.2861 -21.07918,-8.4391 -24.28438,-9.77792 -26.03812,-10.84054 -51.98829,-21.89162 -77.84805,-33.15078 z"
     id="path11"
     style="stroke-width:1.2385" />
  <path
     fill="#ffffff"
     d="m 634.47877,74.011222 c 19.10624,7.577113 38.69798,16.335754 57.76708,24.224959 11.93785,4.939119 31.31409,12.652459 42.29458,18.714889 -5.93362,4.50315 -16.69491,11.05603 -23.24035,15.26196 l -42.5881,27.24564 -64.45744,-27.15771 c -11.08947,-4.64559 -26.28952,-10.45041 -36.69039,-15.69171 22.0291,-14.39254 44.67124,-28.494046 66.91462,-42.598028 z"
     id="path12"
     style="stroke-width:1.2385" />
  <path
     fill="#ffffff"
     d="m 219.53484,334.70191 c 26.76634,10.68201 53.26146,22.45762 79.92253,33.41581 6.74855,2.77423 13.65192,5.64258 20.21718,8.79702 -21.29343,14.34672 -43.78945,27.88717 -65.3566,42.16083 -2.78412,-0.80503 -9.66272,-3.93098 -12.63512,-5.18558 l -23.88807,-10.07267 -40.43189,-17.16925 c -7.44211,-3.18292 -16.46454,-6.74855 -23.47317,-10.3823 5.51377,-4.24184 16.84723,-11.08451 23.03847,-14.97835 z"
     id="path13"
     style="stroke-width:1.2385" />
  <path
     fill="#ffffff"
     d="m 425.59307,205.92822 c 10.74888,3.68947 26.26845,10.8393 37.10157,15.38829 l 63.57934,26.37126 c -22.30653,13.78072 -44.41985,27.86983 -66.335,42.26485 -4.32853,-0.57217 -93.18431,-38.05149 -100.63261,-41.97627 21.10394,-13.63584 44.88427,-29.20743 66.2867,-42.04813 z"
     id="path14"
     style="stroke-width:1.2385" />
  <path
     fill="#ffffff"
     d="m 322.22585,270.32126 c 21.55847,9.39768 43.89842,17.86651 65.51634,27.25926 11.20714,4.86975 22.72639,9.31099 33.62141,14.89165 -19.70196,14.17456 -43.9492,28.60922 -64.57633,42.54723 L 256.224,312.35452 c 21.91393,-14.14609 43.91578,-28.15718 66.00185,-42.03326 z"
     id="path15"
     style="stroke-width:1.2385" />
  <path
     fill="#ffffff"
     d="m 805.27207,345.9945 0.29726,0.10288 c 1.85277,1.99151 21.44205,73.44023 23.53386,81.16349 l -71.4215,19.28831 c -6.89593,1.82679 -13.78195,3.69195 -20.65808,5.59304 1.02052,-4.4239 2.39897,-9.03357 3.72168,-13.38441 8.48493,-27.90328 17.99161,-55.46349 27.02642,-83.19214 12.54348,-3.01697 25.04484,-6.20734 37.50036,-9.57108 z"
     id="path16"
     style="stroke-width:1.2385" />
  <path
     fill="#ffffff"
     d="m 223.85223,497.19113 0.74806,0.73691 c -0.61305,4.17495 -2.28502,8.21987 -3.46532,12.29204 -8.49853,29.31146 -18.77431,58.19808 -27.71255,87.37702 -10.36989,2.60084 -20.70514,5.33666 -31.00198,8.20874 -2.50672,-7.72696 -4.90196,-17.15561 -7.13868,-25.0857 -5.71317,-19.33413 -11.00527,-39.60705 -16.39766,-59.09847 4.4945,3.02687 7.87558,5.19299 12.97198,7.17212 11.59603,4.51554 24.51723,4.19477 35.87424,-0.88924 13.12556,-5.82093 21.13614,-15.54434 26.30191,-28.68105 3.29438,-0.85953 6.48103,-1.4156 9.82,-2.03237 z"
     id="path17"
     style="stroke-width:1.2385" />
  <path
     fill="#ffffff"
     d="m 113.06149,400.29752 c 3.97309,0.88677 27.49953,10.57551 32.70368,12.6314 l 71.59117,28.20918 c -4.17497,2.47203 -8.5803,4.77936 -12.86052,7.08668 -2.83492,-3.05413 -6.03396,-5.74786 -9.52528,-8.02173 -11.94278,-7.75174 -24.52465,-9.61939 -38.30414,-6.77952 -8.0143,1.90975 -15.4205,5.79987 -21.54361,11.3124 -11.03745,10.11479 -14.56346,22.65826 -15.27806,37.08795 -11.64804,-20.33855 -25.511754,-42.11994 -36.528163,-62.45849 9.852234,-6.45381 19.767613,-12.80976 29.744923,-19.06787 z"
     id="path18"
     style="stroke-width:1.2385" />
  <path
     fill="#ffffff"
     d="m 162.53315,452.90627 c 16.09299,-3.16558 31.69554,7.34801 34.80417,23.45338 3.10738,16.10538 -7.46194,31.66954 -23.57846,34.71996 -16.03478,3.0343 -31.50234,-7.47062 -34.59486,-23.49425 -3.09252,-16.0224 7.35665,-31.5296 23.36915,-34.67909 z"
     id="path19"
     style="stroke-width:1.2385" />
  <path
     style="fill:#602d72;fill-opacity:1;stroke:#000000;stroke-width:1.19144"
     d="m 743.80592,992.16768 c -26.5611,-8.05934 -45.85342,-16.42429 -45.84129,-19.87629 0.005,-1.76251 2.54173,-12.53896 5.63451,-23.9477 l 5.62327,-20.74312 -6.11215,-5.04695 c -3.36168,-2.77583 -10.15663,-8.78266 -15.09989,-13.3485 l -8.98777,-8.30153 -21.5806,9.65058 -21.5806,9.65063 -8.05212,-16.6352 c -4.42869,-9.1494 -10.578,-22.80758 -13.66522,-30.35155 l -5.61306,-13.71633 22.37609,-9.90125 22.37612,-9.90131 2.3172,-23.176 c 1.32428,-13.24506 1.58851,-23.4189 0.61663,-23.74287 -1.67857,-0.55952 -37.05746,-21.25823 -38.07602,-22.27666 -1.80812,-1.808 26.56868,-54.56105 29.34939,-54.56105 0.54786,0 9.97807,5.63824 20.95599,12.52943 12.22179,7.67202 20.88466,11.96347 22.34527,11.06953 1.31198,-0.80296 6.25421,-4.40622 10.98278,-8.00722 4.72852,-3.601 13.17619,-8.79338 18.77256,-11.53861 9.59226,-4.70537 10.10747,-5.32025 8.99234,-10.73145 -2.25719,-10.95309 -3.43667,-29.2459 -2.20269,-34.16237 1.94393,-7.74532 10.46688,-10.77223 36.72005,-13.04106 13.08733,-1.13101 24.22739,-1.62413 24.75569,-1.09581 0.52832,0.52832 3.02626,11.52333 5.55097,24.43339 4.42157,22.60941 6.28571,26.59774 12.4898,26.72199 1.5762,0.0316 8.02422,1.69538 14.32895,3.69737 l 11.46311,3.63994 15.58292,-15.38872 15.58291,-15.3887 6.3881,4.42201 c 8.45827,5.85504 35.79444,28.8814 41.36965,34.84731 l 4.41321,4.72248 -11.00088,12.17337 c -6.05047,6.69535 -12.97546,14.36511 -15.38884,17.04389 l -4.38795,4.87056 7.98707,21.39913 7.98706,21.39915 h 10.26227 c 14.99115,0 26.94596,3.509 30.51568,8.957 2.5124,3.83458 2.80741,8.09104 1.73649,25.05608 -0.70966,11.24024 -1.8149,22.88796 -2.45631,25.8838 l -1.16605,5.44701 -22.65634,-0.67068 -22.6563,-0.67071 -9.46449,16.23946 -9.46448,16.23943 6.64608,11.46315 c 3.65537,6.30473 8.49759,15.08962 10.76058,19.52202 4.07267,7.97707 4.07694,8.10055 0.41989,12.15792 -2.03201,2.25449 -13.36639,10.54485 -25.18749,18.42306 l -21.49288,14.32402 -3.81986,-4.51093 c -2.10094,-2.48102 -8.7217,-11.62952 -14.71285,-20.33 -7.87868,-11.44163 -11.71206,-15.49665 -13.85295,-14.65383 -1.62801,0.64088 -10.26773,2.44465 -19.19945,4.0084 -8.93167,1.56372 -16.97246,3.56062 -17.86838,4.43755 -0.89595,0.87694 -4.80489,11.2919 -8.68656,23.14434 -3.88167,11.85245 -7.8772,21.76149 -8.87892,22.02006 -1.0017,0.25857 -8.26934,-1.48636 -16.15024,-3.87766 z m 53.8334,-100.47834 c 10.56481,-2.99565 24.49309,-13.17082 32.39254,-23.66405 9.68734,-12.86816 13.70205,-26.57851 12.8314,-43.81969 -1.63083,-32.29526 -24.8281,-58.01581 -56.15883,-62.26748 -30.16042,-4.09284 -57.64458,10.52036 -71.02264,37.76242 -4.63277,9.43382 -5.30275,13.00595 -5.25305,28.0076 0.045,13.5575 0.94567,19.14651 4.25842,26.42159 14.76134,32.41731 48.00409,47.46917 82.95216,37.55961 z"
     id="path20-6" />
  <path
     style="fill:#2984b4;fill-opacity:1;stroke:#000000;stroke-width:0.854256"
     d="m 836.38926,688.66113 c -19.0441,-5.77848 -32.87653,-11.77607 -32.86783,-14.25115 0.004,-1.2637 1.82239,-8.99033 4.03989,-17.1703 l 4.03183,-14.87265 -4.38235,-3.61863 c -2.41031,-1.99024 -7.28222,-6.2971 -10.82651,-9.57076 l -6.44416,-5.95214 -15.47312,6.9194 -15.4731,6.91942 -5.77331,-11.92731 c -3.17533,-6.56004 -7.58435,-16.35285 -9.79786,-21.76181 l -4.02453,-9.83451 16.04348,-7.09911 16.04351,-7.09916 1.66141,-16.61701 c 0.9495,-9.4966 1.13895,-16.79117 0.44213,-17.02345 -1.20353,-0.40117 -26.56991,-15.24198 -27.30021,-15.97219 -1.29641,-1.29631 19.04953,-39.11983 21.04327,-39.11983 0.39282,0 7.15421,4.04257 15.0253,8.9835 8.76291,5.50076 14.97412,8.57771 16.02137,7.93676 0.94067,-0.57571 4.48421,-3.15922 7.87456,-5.74111 3.39031,-2.58189 9.44722,-6.30478 13.45977,-8.27309 6.87758,-3.37371 7.24698,-3.81458 6.44744,-7.69436 -1.61839,-7.85329 -2.46407,-20.96907 -1.57931,-24.49415 1.39379,-5.55333 7.50467,-7.72359 26.32799,-9.35033 9.38351,-0.81093 17.37085,-1.16448 17.74963,-0.78569 0.37881,0.3788 2.1698,8.26214 3.97999,17.51855 3.17023,16.21076 4.50681,19.07037 8.9551,19.15944 1.13011,0.0226 5.75329,1.21558 10.27373,2.65099 l 8.21896,2.6098 11.17284,-11.03358 11.17282,-11.03358 4.58022,3.17055 c 6.0645,4.19802 25.6643,20.70774 29.66169,24.98524 l 3.16425,3.38599 -7.88756,8.7282 c -4.33808,4.80052 -9.30328,10.29968 -11.03367,12.22033 l -3.14612,3.49215 5.72667,15.34301 5.7267,15.34303 h 7.35795 c 10.74844,0 19.32007,2.51591 21.87943,6.42209 1.80138,2.74935 2.01288,5.80121 1.24506,17.96501 -0.50874,8.05916 -1.30123,16.41048 -1.76107,18.55849 l -0.83614,3.90546 -16.24437,-0.48088 -16.24436,-0.48089 -6.78599,11.64356 -6.78596,11.64355 4.76518,8.21899 c 2.62087,4.52043 6.09271,10.81913 7.71524,13.99713 2.92004,5.71948 2.92317,5.80802 0.30107,8.71713 -1.45694,1.61645 -9.58359,7.56057 -18.05921,13.20918 l -15.41023,10.27021 -2.73882,-3.2343 c -1.50634,-1.77887 -6.25338,-8.33827 -10.54898,-14.57645 -5.64897,-8.20355 -8.39747,-11.11099 -9.93247,-10.50668 -1.16727,0.45951 -7.36188,1.75279 -13.76585,2.87399 -6.40394,1.12118 -12.16911,2.55293 -12.81149,3.1817 -0.64239,0.62874 -3.44507,8.0962 -6.2282,16.59429 -2.78312,8.49811 -5.64788,15.60282 -6.36611,15.78821 -0.71822,0.1854 -5.92904,-1.06571 -11.57959,-2.78025 z m 38.59811,-72.04217 c 7.57489,-2.14785 17.56136,-9.44337 23.2252,-16.96693 6.94574,-9.22636 9.82427,-19.05658 9.20002,-31.41837 -1.1693,-23.15544 -17.80156,-41.59686 -40.26544,-44.64528 -21.62477,-2.93454 -41.33071,7.54301 -50.92267,27.07535 -3.32165,6.76397 -3.80202,9.32516 -3.76639,20.08123 0.0322,9.72061 0.67804,13.72789 3.05325,18.94406 10.58376,23.24296 34.41855,34.03502 59.47603,26.92994 z"
     id="path20-6-5" />
</svg>
